<?xml version="1.0" encoding="utf-8"?>
<!-- Generator: Adobe Illustrator 21.0.0, SVG Export Plug-In . SVG Version: 6.00 Build 0)  -->
<svg version="1.1" id="Layer_1" xmlns="http://www.w3.org/2000/svg" xmlns:xlink="http://www.w3.org/1999/xlink" x="0px" y="0px"
	 viewBox="0 0 125 126" style="enable-background:new 0 0 125 126;" xml:space="preserve">
<style type="text/css">
	.st0{fill:#FFFFFF;}
	.st1{fill:#41B8B5;}
	.st2{fill:#DB3131;}
</style>
<path class="st0" d="M62.3,117.8c-29.9,0-54.2-24.4-54.2-54.6S32.4,8.6,62.3,8.6s54.2,24.4,54.2,54.6S92.2,117.8,62.3,117.8z"/>
<path class="st1" d="M89,73.7c-4.2,10.9-14.8,18.7-27.2,18.7c-16.1,0-29.2-13.2-29.2-29.4s13.1-29.4,29.2-29.4
	c12.5,0,23.2,8,27.3,19.1h19.5c-4.7-21.7-23.9-38-46.8-38c-26.5,0-47.9,21.6-47.9,48.3s21.5,48.3,47.9,48.3
	c22.8,0,41.9-16.1,46.7-37.6C108.5,73.7,89,73.7,89,73.7z"/>
<path class="st2" d="M72.5,73.7c-2.6,2.5-6.1,4-10,4c-8.1,0-14.6-6.6-14.6-14.7s6.5-14.7,14.6-14.7c4.1,0,7.8,1.7,10.4,4.4H83
	c-3.8-7.6-11.5-12.8-20.5-12.8c-12.7,0-22.9,10.3-22.9,23.1s10.3,23.1,22.9,23.1c8.8,0,16.5-5,20.3-12.4H72.5z"/>
<path class="st2" d="M62.5,0C28,0,0,28.2,0,63s28,63,62.5,63S125,97.8,125,63S97,0,62.5,0z M62.3,117.8c-29.9,0-54.2-24.4-54.2-54.6
	S32.4,8.6,62.3,8.6s54.2,24.4,54.2,54.6S92.2,117.8,62.3,117.8z"/>
</svg>
