<?xml version="1.0" encoding="UTF-8"?>
<svg xmlns="http://www.w3.org/2000/svg" xmlns:xlink="http://www.w3.org/1999/xlink" width="18px" height="18px" viewBox="0 0 18 18" version="1.1">
<g id="surface1">
<path style=" stroke:none;fill-rule:nonzero;fill:rgb(100%,100%,100%);fill-opacity:1;" d="M 8.972656 16.828125 C 4.664062 16.828125 1.167969 13.34375 1.167969 9.027344 C 1.167969 4.714844 4.664062 1.230469 8.972656 1.230469 C 13.277344 1.230469 16.777344 4.714844 16.777344 9.027344 C 16.777344 13.34375 13.277344 16.828125 8.972656 16.828125 Z M 8.972656 16.828125 "/>
<path style=" stroke:none;fill-rule:nonzero;fill:rgb(25.490196%,72.156863%,70.980392%);fill-opacity:1;" d="M 12.816406 10.527344 C 12.210938 12.085938 10.683594 13.199219 8.898438 13.199219 C 6.582031 13.199219 4.695312 11.3125 4.695312 9 C 4.695312 6.6875 6.582031 4.800781 8.898438 4.800781 C 10.699219 4.800781 12.238281 5.941406 12.832031 7.527344 L 15.636719 7.527344 C 14.960938 4.429688 12.195312 2.101562 8.898438 2.101562 C 5.082031 2.101562 2 5.1875 2 9 C 2 12.8125 5.097656 15.898438 8.898438 15.898438 C 12.183594 15.898438 14.933594 13.601562 15.625 10.527344 C 15.625 10.527344 12.816406 10.527344 12.816406 10.527344 Z M 12.816406 10.527344 "/>
<path style=" stroke:none;fill-rule:nonzero;fill:rgb(85.882353%,19.215686%,19.215686%);fill-opacity:1;" d="M 10.441406 10.527344 C 10.066406 10.886719 9.5625 11.101562 9 11.101562 C 7.832031 11.101562 6.898438 10.15625 6.898438 9 C 6.898438 7.84375 7.832031 6.898438 9 6.898438 C 9.589844 6.898438 10.125 7.144531 10.496094 7.527344 L 11.953125 7.527344 C 11.40625 6.441406 10.296875 5.699219 9 5.699219 C 7.171875 5.699219 5.703125 7.171875 5.703125 9 C 5.703125 10.828125 7.1875 12.300781 9 12.300781 C 10.265625 12.300781 11.375 11.585938 11.921875 10.527344 Z M 10.441406 10.527344 "/>
<path style=" stroke:none;fill-rule:nonzero;fill:rgb(85.882353%,19.215686%,19.215686%);fill-opacity:1;" d="M 9 0 C 4.03125 0 0 4.027344 0 9 C 0 13.972656 4.03125 18 9 18 C 13.96875 18 18 13.972656 18 9 C 18 4.027344 13.96875 0 9 0 Z M 8.972656 16.828125 C 4.664062 16.828125 1.167969 13.34375 1.167969 9.027344 C 1.167969 4.714844 4.664062 1.230469 8.972656 1.230469 C 13.277344 1.230469 16.777344 4.714844 16.777344 9.027344 C 16.777344 13.34375 13.277344 16.828125 8.972656 16.828125 Z M 8.972656 16.828125 "/>
</g>
</svg>
