<?xml version="1.0" encoding="utf-8"?>
<!-- Generator: Adobe Illustrator 23.0.0, SVG Export Plug-In . SVG Version: 6.00 Build 0)  -->
<svg version="1.1" id="Camada_1" xmlns="http://www.w3.org/2000/svg" xmlns:xlink="http://www.w3.org/1999/xlink" x="0px" y="0px"
	 viewBox="0 0 1024 1024" style="enable-background:new 0 0 1024 1024;" xml:space="preserve">
<style type="text/css">
	.st0{fill:#FFFFFF;}
	.st1{fill:#1001A6;}
	.st2{fill:#0000FF;}
	.st3{fill:#F802FF;}
</style>
<rect y="1" width="1024" height="1024"/>
<g>
	<path class="st1" d="M80.48,1026.5c0.17-1.51,0.27-3.05,0.27-4.61V734.26c0-235.42,191.53-426.95,426.95-426.95h8.6
		c235.42,0,426.95,191.53,426.95,426.95v287.63c0,1.56,0.1,3.1,0.27,4.61h80.21c0.17-1.51,0.27-3.05,0.27-4.61V734.26
		c0-68.26-13.49-134.63-40.09-197.24c-25.66-60.39-62.33-114.68-109.01-161.36c-46.68-46.68-100.97-83.36-161.36-109.01
		c-62.62-26.6-128.98-40.09-197.24-40.09h-8.6c-68.26,0-134.63,13.49-197.24,40.09c-60.39,25.65-114.68,62.33-161.36,109.01
		c-46.68,46.68-83.36,100.97-109.01,161.36C13.49,599.63,0,665.99,0,734.26v287.63c0,1.56,0.1,3.1,0.27,4.61H80.48z"/>
	<path class="st2" d="M347.22,527.25c48.05-38.87,108.63-60.27,170.59-60.27c148.17,0,268.71,118.03,268.71,263.1v291.8
		c0,1.56,0.1,3.1,0.27,4.61H867c0.17-1.51,0.27-3.05,0.27-4.61v-291.8c0-46.34-9.32-91.37-27.71-133.87
		c-17.7-40.91-42.99-77.68-75.17-109.27c-32.13-31.54-69.48-56.33-111.02-73.65c-43.04-17.95-88.65-27.06-135.56-27.06
		c-40.97,0-81.17,7-119.48,20.81c-36.99,13.34-71.27,32.66-101.89,57.43c-17.34,14.02-20.02,39.45-6,56.78
		C304.46,538.59,329.89,541.28,347.22,527.25z"/>
	<path class="st3" d="M390.88,1026.5c0.17-1.51,0.27-3.05,0.27-4.61V754.6c0-69.12,56.23-125.35,125.35-125.35
		s125.35,56.23,125.35,125.35v267.29c0,1.56,0.1,3.1,0.27,4.61h80.21c0.17-1.51,0.27-3.05,0.27-4.61V754.6
		c0-113.64-92.45-206.1-206.1-206.1s-206.1,92.45-206.1,206.1v267.29c0,1.56,0.1,3.1,0.27,4.61H390.88z"/>
	<path class="st3" d="M552.97,1026.5c0.79-3.16,1.22-6.47,1.22-9.87V779.76c0-22.3-18.08-40.37-40.37-40.37
		c-22.3,0-40.37,18.08-40.37,40.37v236.87c0,3.41,0.43,6.71,1.22,9.87H552.97z"/>
	<path class="st2" d="M248.83,1026.5c0.17-1.51,0.27-3.05,0.27-4.61v-291.8c0-12.98,0.99-26.03,2.93-38.78
		c3.36-22.04-11.78-42.64-33.82-46c-22.04-3.36-42.64,11.78-46,33.82c-2.56,16.77-3.86,33.92-3.86,50.96v291.8
		c0,1.56,0.1,3.1,0.27,4.61H248.83z"/>
</g>
</svg>
