<?xml version="1.0" standalone="no"?>
<!DOCTYPE svg PUBLIC "-//W3C//DTD SVG 20010904//EN"
 "http://www.w3.org/TR/2001/REC-SVG-20010904/DTD/svg10.dtd">
<svg version="1.0" xmlns="http://www.w3.org/2000/svg"
 width="455.000000pt" height="548.000000pt" viewBox="0 0 455.000000 548.000000"
 preserveAspectRatio="xMidYMid meet">

<g transform="translate(0.000000,548.000000) scale(0.100000,-0.100000)"
fill="#000000" stroke="none">
<path d="M1890 5323 c-222 -41 -401 -205 -449 -413 -12 -48 -21 -97 -21 -108
0 -20 -4 -21 -372 -24 -370 -4 -374 -4 -451 -30 -151 -50 -289 -169 -360 -308
-54 -109 -69 -203 -65 -413 3 -193 10 -214 75 -264 32 -24 47 -28 120 -32 l83
-3 0 -1442 c0 -940 4 -1463 10 -1504 40 -247 168 -427 382 -540 140 -74 95
-72 1418 -72 1329 0 1270 -3 1420 78 72 39 200 136 200 153 0 4 14 23 31 41
31 34 71 106 112 201 l22 52 5 1515 5 1515 60 2 c96 4 123 12 161 45 64 56 67
71 67 288 0 187 -2 198 -28 275 -43 125 -61 156 -131 233 -80 88 -152 137
-258 175 l-81 30 -375 6 -375 6 -7 61 c-21 194 -183 386 -383 455 -69 24 -77
24 -430 25 -198 1 -371 0 -385 -3z m764 -397 c46 -38 62 -63 73 -118 l6 -28
-477 0 c-473 0 -476 0 -476 20 0 47 56 122 115 154 26 14 74 15 371 13 l341
-2 47 -39z m1169 -523 c104 -53 148 -121 155 -235 l5 -78 -1729 2 -1729 3 2
64 c2 35 10 77 18 92 8 16 22 42 30 57 15 29 85 85 127 101 14 6 629 10 1556
10 1407 1 1536 0 1565 -16z m-128 -2143 l0 -1465 -24 -55 c-51 -113 -136 -184
-251 -209 -41 -9 -343 -11 -1200 -9 l-1145 3 -67 34 c-68 34 -126 91 -164 161
-18 34 -19 82 -22 1523 l-2 1487 1437 -2 1438 -3 0 -1465z"/>
<path d="M1430 3082 c-25 -12 -43 -33 -62 -71 l-28 -55 0 -856 c0 -845 0 -858
21 -907 16 -38 30 -56 62 -74 83 -47 141 -43 214 17 34 28 44 43 53 87 7 37
10 314 8 908 l-3 854 -23 37 c-34 55 -78 78 -148 78 -36 0 -73 -7 -94 -18z"/>
<path d="M2170 3087 c-13 -7 -39 -32 -57 -55 l-33 -44 0 -885 c0 -986 -4 -927
69 -977 46 -33 96 -47 130 -40 53 13 111 55 134 97 l22 42 0 870 0 870 -26 49
c-33 64 -74 86 -154 86 -33 0 -71 -6 -85 -13z"/>
<path d="M2908 3089 c-15 -6 -41 -33 -60 -62 l-33 -52 -2 -870 -3 -870 23 -45
c42 -81 130 -121 208 -95 53 19 81 41 108 86 21 34 21 41 21 911 0 495 -4 887
-9 900 -5 13 -25 41 -44 63 -34 39 -36 40 -108 42 -41 1 -86 -2 -101 -8z"/>
</g>
</svg>
